<svg width="272" height="96" viewBox="0 0 272 96" fill="none" xmlns="http://www.w3.org/2000/svg">
  <rect width="272" height="96" rx="24" fill="#F5F0FF"/>
  <g transform="translate(32 24)">
    <path d="M36.641 33.313c-.94 0-1.835-.378-2.496-1.04l-12.21-12.209a3.56 3.56 0 0 1 0-5.034l12.21-12.21a3.59 3.59 0 0 1 5.086 5.068l-9.643 9.645 9.643 9.642a3.59 3.59 0 0 1-2.59 6.138Z" fill="#8C85FF"/>
    <path d="M60.676 33.54a3.59 3.59 0 0 1-2.59-6.138l9.642-9.642-9.641-9.645a3.59 3.59 0 1 1 5.085-5.068l12.21 12.21a3.56 3.56 0 0 1 0 5.034l-12.21 12.209c-.661.662-1.557 1.04-2.496 1.04Z" fill="#5B4BFF"/>
    <path d="M51.352 3.457a3.59 3.59 0 0 1 3.59 3.59v32.066a3.59 3.59 0 0 1-7.18 0V7.047a3.59 3.59 0 0 1 3.59-3.59Z" fill="#7048FF"/>
  </g>
  <text x="104" y="60" fill="#2F1C6A" font-family="Inter, Arial, sans-serif" font-size="40" font-weight="700">simplecode</text>
</svg>

